<svg id="SvgjsSvg1001" width="288" height="288" xmlns="http://www.w3.org/2000/svg" version="1.1" xmlns:xlink="http://www.w3.org/1999/xlink" xmlns:svgjs="http://svgjs.com/svgjs"><defs id="SvgjsDefs1002"></defs><g id="SvgjsG1008" transform="matrix(1,0,0,1,0,0)"><svg xmlns="http://www.w3.org/2000/svg" enable-background="new 0 0 512.13 512.13" viewBox="0 0 512.13 512.13" width="288" height="288"><path d="M224.444 224.378c-3.337 3.337-3.337 8.738 0 12.066l34.125 34.125c1.664 1.673 3.849 2.5 6.033 2.5 2.185 0 4.369-.828 6.033-2.5 3.337-3.328 3.337-8.73 0-12.066l-34.125-34.125C233.174 221.05 227.781 221.05 224.444 224.378zM225.699 116.952c1.69 2.005 4.105 3.046 6.545 3.046 1.937 0 3.883-.657 5.478-1.997 3.61-3.038 4.079-8.414 1.05-12.023l-30.43-36.258c-3.029-3.601-8.414-4.079-12.023-1.05-3.61 3.029-4.079 8.414-1.05 12.023L225.699 116.952zM204.869 213.336c2.185 0 4.369-.836 6.033-2.5 3.337-3.337 3.337-8.738 0-12.066l-34.116-34.116c-3.337-3.328-8.73-3.328-12.066 0-3.337 3.337-3.337 8.738 0 12.066l34.116 34.116C200.5 212.499 202.684 213.336 204.869 213.336zM147.559 250.43c-3.533-3.14-8.909-2.833-12.049.7-3.14 3.516-2.825 8.909.691 12.049l37.393 33.331c1.621 1.451 3.652 2.159 5.675 2.159 2.347 0 4.685-.956 6.374-2.85 3.132-3.516 2.825-8.917-.691-12.049L147.559 250.43zM170.94 52.252c1.69 1.997 4.096 3.021 6.519 3.021 1.946 0 3.9-.666 5.504-2.014 3.601-3.046 4.045-8.431 1.007-12.032L151.655 3.023c-3.055-3.601-8.422-4.045-12.032-.998-3.593 3.046-4.045 8.422-1.007 12.023L170.94 52.252zM283.691 184.723c1.698 1.988 4.096 3.012 6.511 3.012 1.963 0 3.917-.666 5.521-2.022 3.593-3.046 4.036-8.431.99-12.032l-32.802-38.664c-3.038-3.576-8.431-4.028-12.032-.99-3.593 3.055-4.028 8.439-.981 12.032L283.691 184.723zM428.169 269.272c1.638 2.466 4.352 3.797 7.108 3.797 1.63 0 3.268-.461 4.727-1.434 3.925-2.611 4.983-7.91 2.364-11.827l-170.667-256c-2.611-3.925-7.919-4.992-11.836-2.372-3.917 2.611-4.975 7.919-2.364 11.836L428.169 269.272z" fill="#f3f212" class="color000 svgShape"></path><path d="M510.225 293.805c-3.746-8.073-12.433-13.261-20.915-12.126-7.253.956-70.033 10.351-89.907 13.329l-42.069-76.715c-5.53-11.196-12.416-13.551-17.212-13.551-10.146 0-17.271 10.155-19.063 20.181-1.749 9.754-10.103 65.502-12.843 83.823-19.277 4.506-81.903 19.106-91.785 20.873-8.841 1.579-18.5 7.381-20.164 16.768-.785 4.429-.239 12.971 12.297 20.275 14.148 8.252 59.631 35.703 74.487 44.681l-9.677 77.005c-.751 6.007 1.169 12.126 5.291 16.794 3.917 4.446 9.361 6.989 14.95 6.989 4.762 0 9.318-1.801 13.056-5.094 7.159-6.042 48.802-42.035 61.943-53.41 19.081 7.859 88.235 36.343 97.374 40.243 3.661 1.57 7.305 2.364 10.82 2.364 6.997 0 13.124-3.294 16.41-8.815 3.652-6.118 3.405-13.952-.427-20.966-4.19-9.122-32.196-68.804-40.516-86.519l54.878-65.041C512.35 308.73 513.502 300.845 510.225 293.805zM494.115 303.891l-58.411 69.205c-2.15 2.551-2.62 6.118-1.203 9.131 0 .009 37.862 80.632 43.042 91.853 1.306 2.406 1.314 4.104 1.007 4.608-.137.239-.777.478-1.741.478-.819 0-2.202-.171-4.113-.99-10.667-4.548-98.705-40.789-102.443-42.334-2.978-1.203-6.383-.666-8.832 1.442 0 0-57.267 49.536-65.903 56.832-.973.862-2.731 1.237-4.053-.265-.87-.973-1.297-2.236-1.152-3.371l10.368-82.517c.41-3.337-1.169-6.613-4.053-8.363-.623-.375-62.43-37.743-79.462-47.676-2.142-1.246-3.209-2.227-3.721-2.807.913-.862 3.012-2.167 5.99-2.697 12.1-2.167 94.805-21.547 98.321-22.374 3.396-.802 5.973-3.593 6.485-7.049.12-.785 11.605-77.841 13.619-89.062.393-2.21 1.391-4.156 2.236-5.299.521.691 1.237 1.801 2.108 3.541l45.099 82.253c1.724 3.14 5.197 4.898 8.747 4.335.87-.128 87.194-13.073 95.573-14.174.819 0 2.449.939 3.132 2.406C495.079 301.69 495.284 302.483 494.115 303.891zM139.094 151.093c1.664 1.673 3.849 2.5 6.033 2.5 2.185 0 4.369-.828 6.033-2.5 3.337-3.328 3.337-8.73 0-12.066l-34.125-34.125c-3.328-3.328-8.73-3.328-12.066 0-3.337 3.336-3.337 8.738 0 12.066L139.094 151.093zM3.081 151.58l37.734 32c1.604 1.357 3.567 2.022 5.513 2.022 2.423 0 4.83-1.024 6.519-3.012 3.046-3.593 2.603-8.977-.99-12.023l-37.734-32c-3.601-3.046-8.986-2.611-12.032.981C-.955 143.149-.512 148.533 3.081 151.58z" fill="#f3f212" class="color000 svgShape"></path><path d="M252.655 436.909L13.722 257.717c-3.78-2.842-9.122-2.057-11.947 1.698-2.825 3.772-2.065 9.122 1.707 11.947l238.933 179.2c1.536 1.152 3.337 1.707 5.111 1.707 2.594 0 5.163-1.178 6.835-3.413C257.186 445.092 256.427 439.742 252.655 436.909zM28.186 40.186c1.664 1.672 3.849 2.5 6.033 2.5 2.185 0 4.369-.828 6.033-2.5 3.337-3.328 3.337-8.73 0-12.066L14.635 2.503c-3.328-3.328-8.73-3.328-12.066 0-3.336 3.337-3.336 8.738 0 12.066L28.186 40.186zM81.187 194.562c-3.601-3.046-8.986-2.603-12.023.99-3.046 3.593-2.603 8.977.99 12.032l35.994 30.532c1.604 1.357 3.567 2.022 5.521 2.022 2.415 0 4.821-1.024 6.511-3.012 3.046-3.593 2.603-8.977-.99-12.032L81.187 194.562zM79.352 91.352c1.664 1.673 3.849 2.5 6.033 2.5 2.185 0 4.369-.828 6.033-2.5 3.336-3.328 3.336-8.73 0-12.066L65.835 53.703c-3.328-3.328-8.73-3.328-12.066 0-3.337 3.337-3.337 8.738 0 12.066L79.352 91.352z" fill="#f3f212" class="color000 svgShape"></path></svg></g></svg>